<?xml version="1.0" encoding="UTF-8" standalone="no"?>
<!-- Created with Inkscape (http://www.inkscape.org/) -->

<svg
   xmlns:dc="http://purl.org/dc/elements/1.1/"
   xmlns:cc="http://creativecommons.org/ns#"
   xmlns:rdf="http://www.w3.org/1999/02/22-rdf-syntax-ns#"
   xmlns:svg="http://www.w3.org/2000/svg"
   xmlns="http://www.w3.org/2000/svg"
   xmlns:xlink="http://www.w3.org/1999/xlink"
   xmlns:sodipodi="http://sodipodi.sourceforge.net/DTD/sodipodi-0.dtd"
   xmlns:inkscape="http://www.inkscape.org/namespaces/inkscape"
   width="210mm"
   height="297mm"
   viewBox="0 0 744.09448819 1052.3622047"
   id="svg4210"
   version="1.1"
   inkscape:version="0.91 r13725"
   sodipodi:docname="tt.svg">
  <defs
     id="defs4212">
    <linearGradient
       inkscape:collect="always"
       id="linearGradient4232">
      <stop
         style="stop-color:#00e2bc;stop-opacity:1;"
         offset="0"
         id="stop4234" />
      <stop
         style="stop-color:#00e2bc;stop-opacity:0;"
         offset="1"
         id="stop4236" />
    </linearGradient>
    <linearGradient
       inkscape:collect="always"
       xlink:href="#linearGradient4232"
       id="linearGradient4238"
       x1="182.85715"
       y1="703.79077"
       x2="237.14285"
       y2="29.505062"
       gradientUnits="userSpaceOnUse" />
  </defs>
  <sodipodi:namedview
     id="base"
     pagecolor="#ffffff"
     bordercolor="#666666"
     borderopacity="1.0"
     inkscape:pageopacity="0.0"
     inkscape:pageshadow="2"
     inkscape:zoom="0.35"
     inkscape:cx="375"
     inkscape:cy="520"
     inkscape:document-units="px"
     inkscape:current-layer="layer1"
     showgrid="false"
     inkscape:window-width="1366"
     inkscape:window-height="705"
     inkscape:window-x="-8"
     inkscape:window-y="-8"
     inkscape:window-maximized="1" />
  <metadata
     id="metadata4215">
    <rdf:RDF>
      <cc:Work
         rdf:about="">
        <dc:format>image/svg+xml</dc:format>
        <dc:type
           rdf:resource="http://purl.org/dc/dcmitype/StillImage" />
        <dc:title></dc:title>
      </cc:Work>
    </rdf:RDF>
  </metadata>
  <g
     inkscape:label="Layer 1"
     inkscape:groupmode="layer"
     id="layer1">
    <path
       style="fill:none;fill-rule:evenodd;stroke:#000000;stroke-width:1px;stroke-linecap:butt;stroke-linejoin:miter;stroke-opacity:1"
       d="m 80,66.647919 c -8.518354,2.750994 2.129589,10.026537 0,14.285714 -0.602339,1.204677 -2.254804,1.652466 -2.857143,2.857143 -0.897889,1.795778 0.897889,9.632794 0,11.428572 -0.602338,1.204677 -2.254804,1.652465 -2.857143,2.857142 -0.07474,0.149474 -0.07474,8.42196 0,8.57143 1.714286,3.42857 6.857143,5.14286 8.571429,8.57143 0.425918,0.85183 -0.673435,2.18371 0,2.85714 1.505846,1.50585 3.942361,1.67586 5.714286,2.85714 2.241327,1.49422 3.304931,4.50961 5.714285,5.71429 0.851836,0.42592 2.431225,-0.85184 2.857143,0 0.851836,1.70367 0,3.80952 0,5.71428 0,0.95239 0.425918,2.00531 0,2.85715 -0.602338,1.20467 -1.904762,1.90476 -2.857143,2.85714 -0.952381,0.95238 -1.652465,2.2548 -2.857143,2.85714 -0.851835,0.42592 -2.183707,-0.67343 -2.857142,0 -0.673435,0.67344 0.673435,2.18371 0,2.85715 -0.673435,0.67343 -2.183708,-0.67344 -2.857143,0 -0.673435,0.67343 0.425917,2.0053 0,2.85714 -0.602339,1.20468 -2.254805,1.65246 -2.857143,2.85714 -0.425918,0.85184 0.673435,2.18371 0,2.85714 -0.673435,0.67344 -2.183708,-0.67343 -2.857143,0 -11.15067,11.15068 0.661359,1.53443 -2.857143,8.57143 -0.602338,1.20468 -2.254804,1.65247 -2.857143,2.85715 -0.425917,0.85183 0.425918,2.0053 0,2.85714 -0.602338,1.20468 -2.431225,1.57939 -2.857143,2.85714 -0.903507,2.71053 0,5.71429 0,8.57143 0,5.71429 0,11.42857 0,17.14286 0,0.95238 0,1.90476 0,2.85714 0,0.95238 0.952381,2.85714 0,2.85714 -0.952381,0 0,-3.80952 0,-2.85714 0,1.90476 -0.851835,4.01062 0,5.71429 0.425918,0.85183 2.005308,-0.42592 2.857143,0 1.204677,0.60233 1.652466,2.2548 2.857143,2.85714 1.703671,0.85183 4.367416,-1.34687 5.714286,0 0.673435,0.67343 -0.673435,2.18371 0,2.85714 0.420168,0.42017 8.571428,-0.33613 8.571428,0 0,0.95238 -2.857142,-0.95238 -2.857142,0 0,1.34687 2.254804,1.65247 2.857142,2.85714 0.375631,0.75127 0,9.93452 0,11.42858 0,3.11971 0.615911,12.43798 0,14.28571 -0.952381,1.90476 -1.904761,3.80952 -2.857142,5.71429 -0.952381,0 -2.183708,-0.67344 -2.857143,0 -0.673435,0.67343 0.425917,2.0053 0,2.85714 -0.602339,1.20468 -2.254805,1.65246 -2.857143,2.85714 -0.425918,0.85184 0.425918,2.00531 0,2.85714 -1.204677,2.40936 -4.86245,3.15878 -5.714286,5.71429 -0.602338,1.80702 0.461973,3.8664 0,5.71429 -3.449246,13.79698 -1.35777,-0.14161 -5.714286,8.57142 -0.897888,1.79578 0.897889,9.6328 0,11.42858 -1.204677,2.40935 -4.509608,3.30493 -5.714285,5.71428 -0.250364,0.50073 -0.0073,19.98531 0,20 0.425917,0.85184 2.183708,-0.67343 2.857143,0 0.673435,0.67344 -0.673435,2.18371 0,2.85714 0.673435,0.67344 2.183707,-0.67343 2.857142,0 0.673435,0.67344 -0.851835,2.43123 0,2.85715 1.703671,0.85183 3.90727,-0.60234 5.714286,0 1.277753,0.42592 1.57939,2.43122 2.857143,2.85714 1.699169,0.56639 13.648596,-0.63712 14.285714,0 0.673435,0.67344 -0.851835,2.43123 0,2.85714 5.714286,2.85715 4.285715,-1.42857 8.571426,0 2.81918,0.93973 12.87629,5.75258 14.28572,8.57143 0.63568,1.27137 -0.43561,10.12175 0,11.42857 0.42591,1.27776 1.90476,1.90477 2.85714,2.85715 0.95238,1.90476 2.34064,3.64828 2.85714,5.71428 0.46198,1.84789 0,3.80953 0,5.71429 0,0.95238 -0.42591,2.00531 0,2.85714 0.60234,1.20468 2.25481,1.65247 2.85715,2.85714 0.43476,0.86953 0,7.2847 0,8.57143 0,4.76191 0,9.52381 0,14.28572 0,1.90476 0.60233,3.90727 0,5.71428 -0.67344,2.02031 -2.34065,3.64828 -2.85715,5.71429 -0.58086,2.32343 0,14.15189 0,17.14285 0,0.95239 0.30117,1.95364 0,2.85715 -1.34687,4.04061 -4.68128,7.29656 -5.71428,11.42857 -0.46198,1.84789 0.46197,3.86639 0,5.71428 -0.5165,2.06601 -2.34064,3.64829 -2.85715,5.71429 -0.54319,2.17276 0,11.89317 0,14.28571 0,2.27988 -0.57137,12.57159 0,14.28572 0.67344,2.0203 2.18371,3.69398 2.85715,5.71428 0.60234,1.80702 -0.85184,4.01062 0,5.71429 5.94537,11.89074 -0.19725,-3.05439 5.71428,2.85714 0.67344,0.67344 -0.67343,2.18371 0,2.85715 1.50585,1.50584 3.69398,2.1837 5.71429,2.85714 0.90351,0.30117 2.18371,-0.67344 2.85714,0 0.67344,0.67343 -0.67343,2.18371 0,2.85714 0.67344,0.67344 2.00531,-0.42592 2.85714,0 11.89075,5.94537 -3.05438,-0.19724 2.85715,5.71429 0.67343,0.67343 2.1837,-0.67344 2.85714,0 0.67344,0.67343 0,1.90476 0,2.85714 0,2.3001 0.59777,9.63528 0,11.42857 -0.67344,2.02031 -2.18371,3.69398 -2.85714,5.71429 -0.30117,0.90351 0.42591,2.00531 0,2.85714 -0.60234,1.20468 -2.25481,1.65247 -2.85715,2.85714 -0.43433,0.86868 0,9.45565 0,11.42857 0,1.90477 0,3.80953 0,5.71429 0,1.90476 0.46198,3.8664 0,5.71429 -0.5165,2.066 -2.34064,3.64828 -2.85714,5.71428 -0.46197,1.84789 0.60234,3.90727 0,5.71429 -0.45224,1.35671 -11.08463,10.99864 -11.42857,11.42857 -1.90476,2.85714 -3.80952,5.71428 -5.71429,8.57143 0,0.95238 0.42592,2.00531 0,2.85714 -0.60233,1.20468 -2.11003,1.73648 -2.85714,2.85714 -1.18128,1.77193 -1.67586,3.94236 -2.85714,5.71429 -1.49422,2.24133 -4.50961,3.30493 -5.71429,5.71428 -0.40086,0.80173 -0.40086,10.62685 0,11.42858 0.60234,1.20467 1.65247,2.2548 2.85715,2.85714 0.85183,0.42592 2.1837,-0.67344 2.85714,0 0.67343,0.67343 -0.67344,2.18371 0,2.85714 0.67343,0.67344 2.18371,-0.67343 2.85714,0 0.67344,0.67344 0,1.90476 0,2.85714 0,1.90477 0.60234,3.90727 0,5.71429 -0.82694,2.48081 -11.965435,7.798 -14.285713,8.57143 -3.725258,1.24175 -7.782659,1.39878 -11.428571,2.85714 -1.250538,0.50022 -1.652466,2.25481 -2.857143,2.85714 -1.52381,0.76191 -5.142857,-1.71428 -2.857143,2.85715 0.602339,1.20467 1.904762,1.90476 2.857143,2.85714 1.904762,1.90476 3.213211,4.71386 5.714286,5.71429 2.65279,1.06111 5.769769,-0.56034 8.571428,0 11.497483,2.29949 1.312727,2.08493 8.571433,5.71428 3.04761,1.52381 3.81909,-2.82843 5.71428,2.85714 0.40744,1.22231 0.12701,19.746 0,20 -0.42592,0.85184 -2.18371,-0.67343 -2.85714,0 -0.67344,0.67344 0.42592,2.00531 0,2.85715 -0.60234,1.20467 -2.25481,1.65246 -2.85714,2.85714 -0.42592,0.85184 0,1.90476 0,2.85714 0,0.95238 -0.42592,2.00531 0,2.85715 0.60233,1.20467 1.77964,2.04902 2.85714,2.85714 3.46346,5.01702 9.76682,5.34364 14.28571,8.57143 4.96232,3.54451 8.99099,8.40301 14.28572,11.42857 1.65379,0.94503 4.36741,-1.34687 5.71428,0 1.34687,1.34687 0,3.80952 0,5.71428 0,0.95239 0.52829,2.06472 0,2.85715 -5.3249,7.98736 -12.52059,6.94093 -20,11.42857 -2.85714,1.90476 -5.71428,3.80952 -8.57143,5.71428 0,0.95239 0.67344,2.18371 0,2.85715 -0.67343,0.67343 -2.43122,-0.85184 -2.85714,0 -0.85183,1.70367 0.46197,3.86639 0,5.71428 -0.5165,2.06601 -1.90476,3.80953 -2.85714,5.71429 0,2.85714 0.56033,5.76977 0,8.57143 -0.41765,2.08823 -2.34064,3.64828 -2.85714,5.71428 -0.46198,1.84789 0,3.80953 0,5.71429 0,5.71428 0,11.42857 0,17.14286 0,5.71428 0,11.42857 0,17.14285 0,2.85715 0.56033,5.76977 0,8.57143 -0.41765,2.08824 -2.4395,3.62605 -2.85715,5.71429 -0.56033,2.80166 0.46971,5.75316 0,8.57143 -1.3537,8.12224 -3.04955,7.62388 -5.714283,14.28571 -5.503105,13.75776 -0.295835,3.74465 -5.714286,20 -1.34687,4.04061 -4.367415,7.38796 -5.714285,11.42857 -1.241753,3.72526 -1.61539,7.70331 -2.857143,11.42857 -0.673435,2.02031 -2.2721,3.66664 -2.857143,5.71429 -1.334103,4.66936 -1.52304,9.61635 -2.857143,14.28571 -1.170086,4.0953 -4.878992,7.25211 -5.714286,11.42857 -0.560331,2.80166 0,5.71429 0,8.57143 0,2.85715 0,5.71429 0,8.57143 0,11.42857 0,22.85714 0,34.28572 0,3.80952 0,7.61904 0,11.42857 0,1.90476 0,3.80952 0,5.71428 0,0.95238 -0.425917,2.00531 0,2.85715 0.602339,1.20467 2.431226,1.57939 2.857143,2.85714 0.602339,1.80701 -0.602338,3.90727 0,5.71428 0.425918,1.27776 2.110034,1.73648 2.857143,2.85715 1.181283,1.77192 2.183708,3.69398 2.857143,5.71425 0.602339,1.807 -1.34687,4.3674 0,5.7143 0.673435,0.6735 1.904762,0 2.857143,0 1.87745,0 6.959433,0.5374 8.571428,0 2.020306,-0.6734 3.809524,-1.9047 5.714286,-2.8571 1.904762,-0.9524 4.010613,-1.5794 5.714283,-2.8572 2.15499,-1.61621 3.43,-4.28657 5.71429,-5.71425 5.41766,-3.38604 11.42857,-5.71429 17.14286,-8.57143 1.90476,-0.95238 4.05135,-1.5268 5.71428,-2.85714 3.15519,-2.52415 5.71429,-5.71429 8.57143,-8.57143 4.7619,-4.76191 9.52381,-9.52381 14.28571,-14.28572 1.90477,-1.90476 3.6449,-3.98979 5.71429,-5.71428 12.1822,-10.15184 12.08495,-7.07337 22.85714,-20 1.36333,-1.636 1.90476,-3.80953 2.85715,-5.71429 2.33164,-4.66328 4.83164,-8.98985 5.71428,-14.28571 0.78285,-4.69712 0,-9.52381 0,-14.28572 0,-9.52381 0,-19.04762 0,-28.57143 0,-19.04761 0,-38.09523 0,-57.14285 0,-5.71429 0,-11.42857 0,-17.14286 0,-2.85714 0.40406,-5.743 0,-8.57143 -0.55533,-3.8873 -2.30181,-7.54127 -2.85714,-11.42857 -0.40406,-2.82843 0,-5.71429 0,-8.57143 0,-9.52381 0,-19.04762 0,-28.57143 0,-4.7619 0,-9.52381 0,-14.28571 0,-0.95238 0,-1.90476 0,-2.85714 0,-0.95238 -0.42592,-2.00531 0,-2.85715 0.60234,-1.20467 2.43122,-1.57939 2.85714,-2.85714 0.85714,-2.57143 -0.85714,-6 0,-8.57143 0.67344,-2.0203 2.34064,-3.64828 2.85714,-5.71428 0.46198,-1.84789 -0.60233,-3.90727 0,-5.71429 0.42592,-1.27775 1.90477,-1.90476 2.85715,-2.85714 0.95238,-1.90476 2.34064,-3.64828 2.85714,-5.71429 0.46197,-1.84789 -0.37355,-3.84651 0,-5.71428 0.59064,-2.95321 1.73863,-5.77515 2.85714,-8.57143 0.79091,-1.97728 2.50704,-3.61367 2.85715,-5.71429 0.62628,-3.75769 0,-7.61905 0,-11.42857 0,-10.47619 0,-20.95238 0,-31.42857 0,-1.90476 0,-3.80952 0,-5.71429 0,-1.90476 -0.46198,-3.86639 0,-5.71428 1.033,-4.13201 4.68128,-7.29657 5.71428,-11.42857 0,-18.9519 -1.34687,4.04061 2.85714,-8.57143 0.60234,-1.80702 -0.60233,-3.90727 0,-5.71429 0.42592,-1.27775 1.90477,-1.90476 2.85715,-2.85714 0.95238,-0.95238 1.65246,-2.25481 2.85714,-2.85714 0.85184,-0.42592 2.18371,0.67343 2.85714,0 0.67344,-0.67344 -0.67343,-2.18371 0,-2.85715 0.67344,-0.67343 2.00531,0.42592 2.85715,0 2.40935,-1.20467 3.30493,-4.50961 5.71428,-5.71428 0.85184,-0.42592 2.18371,0.67343 2.85714,0 0.67344,-0.67344 -0.85183,-2.43123 0,-2.85715 0.47325,-0.23662 16.40761,-0.24508 17.14286,0 2.55551,0.85184 3.47296,4.22007 5.71429,5.71429 1.77192,1.18128 4.533,1.08522 5.71428,2.85714 1.05657,1.58486 0,3.80953 0,5.71429 0,1.90476 0.60234,3.90727 0,5.71428 -0.42591,1.27776 -1.90476,1.90477 -2.85714,2.85715 -0.95238,0.95238 -1.82245,1.9949 -2.85714,2.85714 -19.66827,16.39022 -9.18944,7.28975 -31.42857,22.85714 -3.49207,2.44445 -15.2127,6.71746 -11.42858,14.28572 0.42592,0.85183 1.9332,-0.23099 2.85715,0 2.92177,0.73044 5.67561,2.02976 8.57143,2.85714 25.05554,7.15873 -4.12779,-3.34585 34.28571,11.42857 0.1045,0.0402 14.71173,3.70918 17.14286,8.57143 0.42591,0.85184 0,1.90476 0,2.85714 0,1.90477 0.60234,3.90727 0,5.71429 -0.42592,1.27775 -2.25481,1.65246 -2.85715,2.85714 -1.34687,2.69374 -1.51027,5.87769 -2.85714,8.57143 -0.60234,1.20468 -2.53048,1.55049 -2.85714,2.85714 -0.63612,2.54448 0,16.2058 0,20 0,14.4787 -0.85184,-3.40734 2.85714,11.42857 0.46197,1.8479 0,3.80953 0,5.71429 0,1.90476 0,3.80952 0,5.71429 0,6.66666 0,13.33333 0,20 0,11.42857 0,22.85714 0,34.28571 0,6.66667 0.66336,13.36642 0,20 -0.48321,4.83211 -2.32086,9.45921 -2.85714,14.28571 -0.42069,3.78623 0,7.61905 0,11.42858 0,6.66666 0,13.33333 0,20 0,1.83859 -0.48339,18.06644 0,20 0.5165,2.066 2.34064,3.64828 2.85714,5.71428 0.92395,3.69578 -0.74711,7.69303 0,11.42857 0.59064,2.95321 2.1267,5.64966 2.85714,8.57143 0.23099,0.92395 -0.42591,2.00531 0,2.85714 0.60234,1.20468 2.43123,1.57939 2.85715,2.85715 0.46269,1.38808 0,17.083 0,20 0,1.97292 0.43433,10.55989 0,11.42857 -0.60234,1.20468 -2.43123,1.57939 -2.85715,2.85714 -0.9035,2.71053 0,5.71429 0,8.57143 0,4.76191 0,9.52381 0,14.28571 0,4.76191 0,9.52381 0,14.28572 0,1.90476 0,3.80952 0,5.71428 0,0.95239 -0.30117,1.95364 0,2.85715 0.95239,1.90476 1.90477,3.80952 2.85715,5.71428 0.95238,0 2.43122,-0.85183 2.85714,0 0.85184,1.70367 -0.60234,3.90727 0,5.71429 0.42592,1.27775 1.90476,1.90476 2.85714,2.85714 6.04633,6.04633 -0.9693,0.37757 11.42857,2.85714 2.08824,0.41765 3.64829,2.34065 5.71429,2.85715 1.84789,0.46197 3.80952,0 5.71429,0 1.90476,0 3.80952,0 5.71428,0 2.85714,0 5.71429,0 8.57143,0 1.90476,0 3.94576,0.70741 5.71429,0 4.01641,-1.60657 11.47481,-7.68071 14.28571,-11.42857 1.27775,-1.70367 1.67586,-3.94236 2.85714,-5.71429 2.64143,-3.96214 5.93,-7.46643 8.57143,-11.42857 24.71571,-37.07356 6.39342,-9.79386 20,-34.28572 2.69692,-4.85444 6.57792,-9.10257 8.57143,-14.28571 2.81925,-7.33006 3.03039,-15.47644 5.71429,-22.85714 1.17349,-3.22712 4.17861,-5.50009 5.71428,-8.57143 1.34687,-2.69374 1.73863,-5.77514 2.85714,-8.57143 27.18415,-67.96037 -3.62334,7.24668 14.28572,-28.57143 1.34687,-2.69374 1.90476,-5.71428 2.85714,-8.57143 1.90476,-5.71428 3.98348,-11.3735 5.71429,-17.14285 1.12835,-3.76116 1.47836,-7.75183 2.85714,-11.42858 1.4955,-3.98799 4.13247,-7.47402 5.71429,-11.42857 2.23703,-5.59257 3.65583,-11.48212 5.71428,-17.14285 1.27111,-3.49554 7.35838,-17.39842 8.57143,-22.85715 2.30986,-10.39438 3.40442,-21.03418 5.71429,-31.42857 0.85183,-3.83326 2.08704,-7.57806 2.85714,-11.42857 1.13612,-5.68061 1.60044,-11.4877 2.85714,-17.14286 0.65333,-2.93997 2.36203,-5.60071 2.85714,-8.57143 0.46972,-2.81826 0,-5.71428 0,-8.57142 0,-2.85715 0,-5.71429 0,-8.57143 0,-2.85715 0,-5.71429 0,-8.57143 0,-1.90476 0.31315,-3.83544 0,-5.71429 -2.97316,-17.83896 -1.3058,-5.46874 -8.57142,-20 -7.08508,-2.69635 -1.61539,-7.70331 -2.85715,-11.42857 -1.72974,-5.18922 -2.44528,-5.30242 -5.71428,-8.57143 -0.95238,-0.95238 -2.25481,-1.65246 -2.85715,-2.85714 -0.42591,-0.85183 0.85184,-2.43122 0,-2.85714 -1.70367,-0.85184 -3.90727,0.60234 -5.71428,0 -1.27775,-0.42592 -1.57939,-2.43123 -2.85714,-2.85715 -1.3079,-0.43596 -12.69098,0 -14.28572,0 -3.09757,0 -7.17009,1.34687 -8.57143,-2.85714 -1.01201,-3.03603 1.01201,-8.39254 0,-11.42857 -0.67343,-2.0203 -2.1837,-3.69398 -2.85714,-5.71429 -0.80184,-2.40551 0.85052,-12.58467 0,-14.28571 -0.60234,-1.20468 -2.43123,-1.57939 -2.85714,-2.85714 -0.60234,-1.80702 0,-3.80953 0,-5.71429 0,-2.85714 0,-5.71428 0,-8.57143 0,-2.85714 0.46971,-5.75316 0,-8.57143 -1.79538,-10.77225 -3.63525,-7.2705 -8.57143,-17.14285 -7.17798,-14.35596 3.42149,-5.03707 -11.42857,-22.85715 -1.36333,-1.63599 -4.20844,-1.35129 -5.71429,-2.85714 -0.67343,-0.67343 0.67344,-2.18371 0,-2.85714 -0.67343,-0.67344 -2.43122,0.85183 -2.85714,0 -0.85184,-1.70367 0.60234,-3.90727 0,-5.71429 -0.42592,-1.27775 -2.35693,-1.6066 -2.85714,-2.85714 -1.45837,-3.64591 -1.61539,-7.70331 -2.85715,-11.42857 -0.67343,-2.02031 -1.90476,-3.80952 -2.85714,-5.71429 -2.85714,-5.71428 -4.81374,-11.97603 -8.57143,-17.14285 -3.96095,-5.44632 -9.81165,-9.2524 -14.28571,-14.28572 -3.16364,-3.55909 -5.59669,-7.71015 -8.57143,-11.42857 -0.84138,-1.05173 -1.65247,-2.2548 -2.85714,-2.85714 -0.85184,-0.42592 -2.18371,0.67343 -2.85715,0 -0.67343,-0.67344 0.67344,-2.18371 0,-2.85715 -0.67343,-0.67343 -2.0053,0.42592 -2.85714,0 -2.40935,-1.20467 -3.15878,-4.86245 -5.71429,-5.71428 -29.4731,-9.82437 -4.19782,2.1868 -20,-5.71429 -1.90476,-0.95238 -4.20843,-1.35129 -5.71428,-2.85714 -0.27732,-0.27732 0,-13.19694 0,-14.28571 0,-2.27988 -0.57138,-12.57159 0,-14.28572 0.67343,-2.0203 2.18371,-3.69398 2.85714,-5.71428 0.30117,-0.90351 -0.42592,-2.00531 0,-2.85715 0.60234,-1.20467 2.11004,-1.73648 2.85714,-2.85714 1.18129,-1.77192 1.67586,-3.94236 2.85715,-5.71429 0.74711,-1.12066 2.2548,-1.65246 2.85714,-2.85714 0.42592,-0.85183 -0.67344,-2.18371 0,-2.85714 0.67344,-0.67344 1.95363,0.30117 2.85714,0 2.02031,-0.67344 3.94236,-1.67586 5.71429,-2.85714 1.12066,-0.74711 1.65246,-2.25481 2.85714,-2.85715 7.03701,-3.5185 -2.57924,8.29353 8.57143,-2.85714 0.67344,-0.67343 0,-1.90476 0,-2.85714 0.95238,0 2.18371,0.67343 2.85714,0 0.67344,-0.67344 -0.67343,-2.18371 0,-2.85715 0.67344,-0.67343 2.18371,0.67344 2.85715,0 0.67343,-0.67343 -0.30117,-1.95363 0,-2.85714 0.67343,-2.0203 2.43949,-3.62605 2.85714,-5.71428 0.56033,-2.80166 0,-5.71429 0,-8.57143 0,-0.95238 -0.42592,-2.00531 0,-2.85715 0.60234,-1.20467 2.2548,-1.65246 2.85714,-2.85714 0.42592,-0.85183 -0.30117,-1.95363 0,-2.85714 0.67344,-2.02031 2.18371,-3.69398 2.85714,-5.71429 0.30117,-0.9035 -0.42591,-2.0053 0,-2.85714 0.60234,-1.20468 1.57939,-2.43122 2.85715,-2.85714 3.71811,-1.23937 14.7822,0.96862 17.14285,2.85714 2.6814,2.14511 3.56918,5.89004 5.71429,8.57143 14.79821,18.49776 -4.20895,-17.8276 22.85714,28.57143 1.97859,3.39186 1.47837,7.75182 2.85715,11.42857 1.49549,3.98799 3.92944,7.56141 5.71428,11.42857 5.65233,12.24671 12.24225,26.9317 17.14286,40 1.05747,2.81994 1.90476,5.71429 2.85714,8.57143 1.90476,2.85714 4.43898,5.38317 5.71429,8.57143 0.70741,1.76852 -0.85184,4.01061 0,5.71428 0.42591,0.85184 2.43122,-0.85183 2.85714,0 0.85184,1.70367 -1.34687,4.36742 0,5.71429 1.34687,1.34687 4.12943,-1.05657 5.71429,0 1.77192,1.18128 1.15347,4.43653 2.85714,5.71428 2.32907,1.74681 18.64584,5.19346 20,5.71429 14.25492,5.48266 24.29541,10.71914 37.14286,17.14286 3.62539,1.81269 12.38096,4.76193 14.28571,8.57143 0.63568,1.27136 -0.43561,10.12175 0,11.42857 0.42592,1.27775 2.2548,1.65246 2.85714,2.85714 0.85052,1.70104 -0.80184,11.8802 0,14.28571 6.89849,20.69548 -0.82372,-4.50459 5.71429,8.57143 0.42592,0.85184 0,1.90477 0,2.85715 0.95238,1.90476 1.67586,3.94236 2.85714,5.71428 1.49422,2.24133 4.03152,3.61083 5.71429,5.71429 2.97474,3.71842 5.93,7.46642 8.57143,11.42857 1.18128,1.77192 2.06623,3.73701 2.85714,5.71428 1.11851,2.79629 0.9291,6.25779 2.85714,8.57143 3.0485,3.6582 7.71015,5.59669 11.42857,8.57143 2.22934,1.78347 6.38177,7.4766 8.57143,8.57143 0.85184,0.42592 1.90476,0 2.85714,0 0.95239,0 1.90477,0 2.85715,0 1.90476,0 3.80952,0 5.71428,0 1.90476,0 3.8664,0.46197 5.71429,0 2.066,-0.5165 3.80952,-1.90476 5.71428,-2.85714 1.90477,-0.95238 4.05136,-1.5268 5.71429,-2.85715 3.15519,-2.52414 5.41624,-6.04727 8.57143,-8.57142 1.66293,-1.33035 4.09738,-1.47123 5.71428,-2.85715 6.47079,-5.54638 21.87859,-21.87858 28.57143,-28.57143 4.76191,-4.7619 9.52381,-9.5238 14.28572,-14.28571 0.95238,-0.95238 1.65246,-2.2548 2.85714,-2.85714 0.85184,-0.42592 1.90476,0 2.85714,0 2.85715,0 5.86091,-0.90351 8.57143,0 1.27775,0.42592 1.57939,2.43122 2.85714,2.85714 1.80702,0.60234 3.80953,0 5.71429,0 2.85714,0 5.71429,0 8.57143,0 2.85714,0 5.71428,0 8.57143,0 2.85714,0 5.76977,0.56033 8.57143,0 18.54489,-3.70898 -6.36754,-2.85714 11.42857,-2.85714 0.95238,0 -1.90476,0 -2.85715,0 -1.90476,0 -3.80952,0 -5.71428,0 -0.95238,0 -2.18371,0.67343 -2.85714,0 -0.67344,-0.67344 0,-1.90476 0,-2.85715 0,-0.95238 -0.42592,-2.0053 0,-2.85714 0.60233,-1.20468 2.2548,-1.65246 2.85714,-2.85714 0.42592,-0.85184 -0.52829,-2.06471 0,-2.85714 1.49422,-2.24133 3.80952,-3.80953 5.71428,-5.71429 0.95239,-0.95238 2.25481,-1.65247 2.85715,-2.85714 0.42591,-0.85184 -0.67344,-2.18371 0,-2.85715 0.67343,-0.67343 2.1837,0.67344 2.85714,0 0.67344,-0.67343 0,-1.90476 0,-2.85714 0,-1.90476 0.85184,-4.01061 0,-5.71428 -0.42592,-0.85184 -2.06471,0.52828 -2.85714,0 -2.24133,-1.49422 -3.40443,-4.32837 -5.71429,-5.71429 -2.5825,-1.5495 -5.87769,-1.51027 -8.57143,-2.85714 -3.07133,-1.53567 -5.38317,-4.43899 -8.57143,-5.71429 -6.43753,-2.57501 -13.50802,-3.27979 -20,-5.71428 -1.26111,-0.47292 -1.73647,-2.11004 -2.85714,-2.85715 -1.77192,-1.18128 -3.94236,-1.67586 -5.71428,-2.85714 -2.24133,-1.49422 -3.30494,-4.50961 -5.71429,-5.71429 -4.58727,-2.29363 -9.59902,-3.63131 -14.28571,-5.71428 -3.89209,-1.72982 -7.33327,-4.5442 -11.42858,-5.71429 -17.66767,-5.0479 -36.77593,-5.59198 -54.28571,-11.42857 -2.02031,-0.67343 -3.69398,-2.18371 -5.71429,-2.85714 -0.9035,-0.30117 -2.0053,0.42592 -2.85714,0 -1.20468,-0.60234 -1.57939,-2.43123 -2.85714,-2.85714 -4.60701,-1.53567 -9.77684,-1.0536 -14.28572,-2.85715 -5.15609,-2.06244 -9.3187,-6.08792 -14.28571,-8.57143 -4.58727,-2.29363 -9.42018,-4.09243 -14.28571,-5.71428 -0.90351,-0.30117 -2.18371,0.67343 -2.85715,0 -0.67343,-0.67344 0,-1.90476 0,-2.85714 0,-1.90477 0,-3.80953 0,-5.71429 0,-9.52381 0,-19.04762 0,-28.57143 0,-0.95238 0,-1.90476 0,-2.85714 0,-0.95238 0.42592,-2.00531 0,-2.85714 -0.60234,-1.20468 -2.43122,-1.57939 -2.85714,-2.85715 -0.60234,-1.80701 0.60234,-3.90727 0,-5.71428 -0.42592,-1.27776 -2.2548,-1.65247 -2.85714,-2.85715 -0.42592,-0.85183 0.30117,-1.95363 0,-2.85714 -6.89849,-20.69547 0.82372,4.50459 -5.71429,-8.57143 -0.52068,-1.04136 0,-12.63943 0,-14.28571 0,-6.66667 0,-13.33333 0,-20 0,-2.85714 0.69296,-5.79959 0,-8.57143 -0.32666,-1.30666 -2.2548,-1.65247 -2.85714,-2.85714 -0.42592,-0.85184 0.30117,-1.95364 0,-2.85715 -0.67344,-2.0203 -2.18371,-3.69398 -2.85714,-5.71428 -0.30117,-0.90351 0.67343,-2.18371 0,-2.85714 -0.67344,-0.67344 -1.95364,0.30117 -2.85715,0 -17.73459,-5.91153 9.49578,0.23108 -14.28571,-5.71429 -20.57544,-5.14386 -41.77454,-5.71429 -62.85714,-5.71429 -4.76191,0 -9.52381,0 -14.28572,0 -0.95238,0 -2.00531,0.42592 -2.85714,0 -1.20468,-0.60233 -1.65247,-2.2548 -2.85714,-2.85714 -11.74582,-5.87291 -5.11968,-0.85328 -17.14286,-2.85714 -2.97072,-0.49512 -5.66586,-2.06471 -8.57143,-2.85714 -7.57681,-2.06641 -15.40663,-3.23078 -22.85714,-5.71429 -7.34327,-2.44776 -23.28504,-11.85647 -28.57143,-17.14286 -0.67344,-0.67343 0,-1.90476 0,-2.85714 0,-1.90476 0,-3.80952 0,-5.71429 0,-0.95238 -0.42592,-2.0053 0,-2.85714 0.60234,-1.20468 2.2548,-1.65246 2.85714,-2.85714 0.49804,-0.99607 0,-15.04549 0,-17.14286 0,-17.14286 0,-34.28571 0,-51.42857 0,-5.71429 0,-11.42857 0,-17.14286 0,-1.90476 -0.60234,-3.90727 0,-5.71428 6.89849,-20.69548 -0.82372,4.50459 5.71429,-8.57143 0.90849,-1.81698 -0.78878,-11.91937 0,-14.28572 0.42591,-1.27775 2.2548,-1.65246 2.85714,-2.85714 0.89789,-1.79578 -0.89789,-9.632792 0,-11.42857 0.60234,-1.204677 2.43123,-1.579389 2.85714,-2.857142 0.43597,-1.307897 0,-12.690981 0,-14.285715 0,-12.380952 0,-24.761904 0,-37.142857 0,-1.904762 0,-3.809524 0,-5.714286 0,-0.952381 -0.42591,-2.005307 0,-2.857142 0.60234,-1.204678 2.43123,-1.57939 2.85715,-2.857143 0.60233,-1.807016 -0.60234,-3.90727 0,-5.714286 4.20401,-12.612039 2.85714,10.380471 2.85714,-8.571429 0,-1.904761 1.58486,-4.657713 0,-5.714285 -2.37729,-1.584858 -5.75316,0.469711 -8.57143,0 -2.97072,-0.49512 -5.66586,-2.064714 -8.57143,-2.8571431 C 293.94204,4.736009 286.13853,2.690343 268.57143,0.9336333 c -5.23036,-0.52303564 -11.77116,0 -17.14286,0 -4.7619,0 -9.52381,0 -14.28571,0 -1.90476,0 -3.8664,-0.46197262 -5.71429,0 -2.066,0.5165011 -3.69398,2.1837078 -5.71428,2.8571429 -2.10949,0.7031619 -13.31548,-0.1940485 -14.28572,0 -2.08823,0.4176466 -3.64828,2.3406417 -5.71428,2.8571428 -1.84789,0.4619726 -3.80953,0 -5.71429,0 -2.85714,0 -5.71429,0 -8.57143,0 -9.52381,0 -19.04762,0 -28.57143,0 -2.48878,0 -16.08828,-0.5272875 -17.14285,0 -1.20468,0.6023386 -1.57939,2.4312252 -2.85715,2.8571429 -1.80701,0.6023381 -3.80952,0 -5.71428,0 -1.90476,0 -3.80953,0 -5.71429,0 -5.71428,0 -11.42857,0 -17.14286,0 -1.90476,0 -3.80952,0 -5.71428,0 -1.90476,0 -3.90727,-0.6023386 -5.71429,0 C 98.65313,10.9064 100,14.978916 100,18.07649 c 0,16.190477 0,32.380953 0,48.571429 0,1.230711 0.38658,16.369706 0,17.142857 -1.714286,3.428572 -6.857143,5.142857 -8.571429,8.571429 -0.425917,0.851835 0.673435,2.183708 0,2.857143 -0.09189,0.09189 -7.878495,0 -8.571428,0 -0.952381,0 -2.183708,0.673435 -2.857143,0 -0.673435,-0.673435 0,-1.904762 0,-2.857143 0,-4.761905 0,-9.52381 0,-14.285715 0,-3.809523 -3.809524,-11.428571 0,-11.428571 4.259177,0 4.367416,7.387961 5.714286,11.428571 1.012011,3.036034 -1.012012,8.392538 0,11.428572 0.673435,2.020305 2.066233,3.737012 2.857143,5.714286 0.743855,1.859639 3.480782,12.052212 5.714285,14.285712 1.505847,1.50585 3.942361,1.67586 5.714286,2.85714 1.12066,0.74711 1.65247,2.25481 2.85714,2.85715 0.75126,0.37563 9.93452,0 11.42857,0 2.68234,0 12.6486,0.5457 14.28572,0 1.27775,-0.42592 1.57939,-2.43123 2.85714,-2.85715 3.57475,-1.19158 13.06126,1.02041 17.14286,0 2.92177,-0.73044 5.64966,-2.1267 8.57143,-2.85714 0.92394,-0.23098 2.0053,0.42592 2.85714,0 1.20468,-0.60234 1.65247,-2.2548 2.85714,-2.85714 0.85184,-0.42592 1.90476,0 2.85715,0 0.95238,0 1.90476,0 2.85714,0 5.47846,0 4.42344,1.29085 8.57143,-2.85714 0.95238,-0.95238 2.2548,-1.65247 2.85714,-2.85715 1.14286,-2.285711 -1.14286,-6.285711 0,-8.571425 0.60234,-1.204677 2.2548,-1.652466 2.85714,-2.857143 0.42592,-0.851836 0,-1.904762 0,-2.857143 0,-2.955765 0.67344,-3.948997 -2.85714,-5.714286 -0.85184,-0.425917 -1.95363,0.30117 -2.85714,0 -2.02031,-0.673435 -3.69398,-2.183708 -5.71429,-2.857143 -0.56895,-0.18965 -8.00248,-0.18965 -8.57143,0 -2.0203,0.673435 -3.69398,2.183708 -5.71428,2.857143 -1.96524,0.655079 -6.88566,-0.842886 -8.57143,0 -2.40936,1.204677 -3.15878,4.862451 -5.71429,5.714286 -1.80701,0.602339 -4.01061,-0.851835 -5.71428,0 -0.85184,0.425918 0,1.904762 0,2.857143 0,3.487659 -1.10869,6.588512 2.85714,8.571428 0.86953,0.434763 7.28469,0 8.57143,0 6.70051,0 -1.34687,-0.673435 5.71428,2.85714 1.87091,0.93545 11.7502,-0.84517 14.28572,0 2.0203,0.67344 3.69398,2.18371 5.71428,2.85715 2.29972,0.76657 9.6028,-0.91289 11.42858,0 1.20467,0.60233 1.65246,2.2548 2.85714,2.85714 1.8935,0.94675 9.03393,-0.79822 11.42857,0 2.02031,0.67343 3.64828,2.34064 5.71429,2.85714 1.84789,0.46197 3.80952,0 5.71428,0 5.71429,0 11.42857,0 17.14286,0 6.66667,0 13.33333,0 20,0 1.28673,0 7.7019,0.43476 8.57143,0 4.20401,-2.102 2.85714,-4.48296 2.85714,-8.57143 0,-1.904759 0,-7.619044 0,-5.714282 0,1.904761 0,7.619052 0,5.714282 0,-2.85714 0,-5.714282 0,-8.571425 0,-0.952381 0.67344,-2.183708 0,-2.857143 -0.67344,-0.673435 -1.90476,0 -2.85714,0 -0.95238,0 -1.90476,0 -2.85715,0 -7.61904,0 -15.23809,0 -22.85714,0 -1.28673,0 -7.7019,-0.434763 -8.57143,0 C 219.32656,91.270351 220,92.263582 220,95.219348 c 0,0.952381 -0.42592,2.005307 0,2.857142 0.60234,1.204678 2.2548,1.652466 2.85714,2.85714 0.85184,1.70367 -1.34687,4.36742 0,5.71429 0.67344,0.67343 2.18371,-0.67344 2.85715,0 3.80952,3.80952 -4.76191,2.85714 2.85714,2.85714"
       id="path4220"
       inkscape:connector-curvature="0" />
    <path
       style="fill:none;fill-rule:evenodd;stroke:#000000;stroke-width:1px;stroke-linecap:butt;stroke-linejoin:miter;stroke-opacity:1"
       d="m 137.14286,186.64792 c 2.85714,3.80952 5.20425,8.0614 8.57143,11.42857 0.67343,0.67344 2.0053,-0.42592 2.85714,0 1.20468,0.60234 1.65246,2.2548 2.85714,2.85714 1.48691,6.68194 8.08577,1.74288 11.42857,2.85715 2.02031,0.67343 3.69398,2.1837 5.71429,2.85714 1.70363,0.56788 14.37466,0 17.14286,0 11.42857,0 22.85714,0 34.28571,0 5.71429,0 11.42857,0 17.14286,0 5.49995,0 12.70445,1.58126 17.14285,-2.85714 0.67344,-0.67344 -0.67343,-2.18371 0,-2.85715 0.67344,-0.67343 2.00531,0.42592 2.85715,0 1.20467,-0.60234 1.90476,-1.90476 2.85714,-2.85714 0.95238,-0.95238 2.2548,-1.65247 2.85714,-2.85714 0.42592,-0.85184 -0.67343,-2.18371 0,-2.85715 0.67344,-0.67343 1.90476,0 2.85715,0 0,-0.95238 -0.42592,-2.0053 0,-2.85714 5.94537,-11.89074 -0.19725,3.05439 5.71428,-2.85714 3.47995,-3.47995 1.33835,-6.38346 5.71429,-8.57143 0.85183,-0.42592 2.1837,0.67344 2.85714,0 0.382,-0.382 0,-14.07959 0,-5.71429"
       id="path4222"
       inkscape:connector-curvature="0" />
    <circle
       style="fill:#00e2bc;fill-opacity:0.80357139;stroke:#a9eb67;stroke-opacity:1"
       id="path4224"
       cx="681.42859"
       cy="625.21936"
       r="55.714287" />
    <path
       style="fill:url(#linearGradient4238);fill-opacity:1;stroke:#a9eb67;stroke-width:2.85714293;stroke-opacity:1"
       d="m 81.285714,1002.1174 c 0,-2.17754 -1.92065,-7.64182 -4.268112,-12.14288 -3.047133,-5.84263 -4.273147,-17.41352 -4.285714,-40.44777 -0.01674,-30.70617 0.609843,-34.14206 12.977206,-71.15935 7.147146,-21.39242 14.319506,-41.37054 15.938586,-44.39582 1.61908,-3.02526 4.02408,-23.075 5.34445,-44.55495 3.02096,-49.14534 5.02734,-54.87483 22.29027,-63.65294 10.63451,-5.4076 13.62628,-8.52974 14.36529,-14.99123 0.5357,-4.68391 -0.23232,-7.44074 -1.8025,-6.47031 -1.50475,0.92997 -7.35991,-1.82606 -13.01147,-6.12455 -5.65157,-4.29845 -13.19758,-9.95414 -16.76893,-12.56817 -5.22055,-3.82114 -5.7933,-5.47331 -2.92193,-8.42857 1.96428,-2.02168 3.57143,-8.7412 3.57143,-14.93226 0,-12.12968 -5.56728,-18.77874 -15.857147,-18.9384 -5.783469,-0.0897 -12.714286,-5.00242 -12.714286,-9.01214 0,-1.13526 4.821429,-3.61711 10.714286,-5.5152 5.892857,-1.89808 12.321427,-4.72666 14.285717,-6.28571 4.85717,-3.85512 4.49877,-12.0942 -0.71429,-16.42066 -2.35714,-1.95626 -4.28571,-5.26351 -4.28571,-7.34946 0,-4.14843 14.74613,-27.50654 23.67156,-37.49611 5.24294,-5.86803 6.30529,-10.72623 12.4219,-56.8058 1.38733,-10.45149 0.71186,-12.19729 -6.55914,-16.95257 -4.45817,-2.91569 -9.93974,-7.129 -12.18128,-9.36295 -6.22201,-6.20094 -7.34664,-32.55314 -2.07686,-48.6646 7.19179,-21.98762 9.13693,-64.98377 3.64233,-80.51137 -2.5023,-7.07143 -4.56835,-15.13471 -4.59122,-17.9184 -0.0485,-5.90625 -6.96743,-9.17948 -28.418136,-13.44425 -8.535679,-1.69703 -17.214251,-4.49212 -19.285715,-6.21129 -4.404922,-3.65574 -5.076586,-21.27903 -0.909156,-23.85463 1.571428,-0.9712 2.857143,-4.90422 2.857143,-8.74005 0,-3.83583 1.285714,-6.97423 2.857143,-6.97423 1.571428,0 2.857142,-2.7715 2.857142,-6.15889 0,-3.38738 3.214286,-10.37303 7.142858,-15.52365 5.642105,-7.39718 7.142857,-12.70647 7.142857,-25.26969 0,-12.23294 -0.989446,-15.90492 -4.285715,-15.90492 -2.357142,0 -4.285714,-1.28571 -4.285714,-2.85714 0,-1.57143 -0.964286,-2.70489 -2.142857,-2.5188 -7.848632,1.23926 -9.285714,-1.22428 -9.285714,-15.91819 0,-18.44903 3.773082,-28.03437 16.360469,-41.56301 5.117339,-5.5 9.314262,-11.92857 9.326496,-14.28571 0.01224,-2.35715 -5.119468,-9.27362 -11.403788,-15.36995 -6.284319,-6.09633 -11.426034,-12.84633 -11.426034,-15 0,-6.56228 11.355288,-4.480517 14.037198,2.57344 4.258019,11.19944 14.569123,14.52603 37.926363,12.23589 11.49147,-1.12672 27.89206,-3.86658 36.44577,-6.0886 12.11553,-3.14727 19.37616,-3.37812 32.85714,-1.04469 9.51773,1.64743 27.59067,2.60608 40.1621,2.13033 l 22.85714,-0.865 0.88676,-10.714281 0.88676,-10.714286 -21.91902,0 -21.91902,0 1.93107,10.293486 1.93107,10.293491 -15.18452,-2.05102 c -22.38887,-3.02412 -25.75086,-5.4688 -23.56255,-17.1335 1.63564,-8.71868 1.07079,-9.906271 -5.49547,-11.5543 -18.23292,-4.576171 -42.69079,3.990786 -41.21788,14.437558 0.65817,4.668214 4.20539,6.267074 19.37709,8.733962 l 18.57143,3.01968 -12.85715,2.55697 c -7.07142,1.40633 -16.71428,2.93082 -21.42857,3.38777 -4.71428,0.45694 -13.89528,1.60482 -20.40221,2.55084 C 99.224049,116.40986 83.972471,99.745522 97,88.933633 c 3.40017,-2.821891 4.28571,-11.097088 4.28571,-40.049028 l 0,-36.492201 45,-1.755728 c 24.75,-0.9656504 55.28572,-3.0312287 67.85715,-4.5901744 36.21647,-4.4910978 62.51138,-3.4559955 89.05457,3.5056434 21.83063,5.725651 23.96079,6.889827 22.21846,12.142857 -1.0599,3.195533 -2.94086,22.524346 -4.17991,42.952917 -2.36067,38.921061 -4.98834,58.065611 -8.62742,62.857141 -1.19347,1.57143 -2.62221,28.4312 -3.17497,59.68838 l -1.00502,56.83124 10.22907,6.4747 c 11.47484,7.26324 46.4815,18.43425 57.7675,18.43425 4.05926,0 8.06895,1.11397 8.9104,2.47549 0.84149,1.36152 17.95306,3.18249 38.02577,4.0466 59.67358,2.56887 66.49583,7.11654 66.49583,44.32563 0,13.08794 1.66866,22.96785 4.97015,29.4276 3.25251,6.36397 5.32554,18.36431 5.99857,34.72468 0.68031,16.53789 2.1554,25 4.35788,25 1.8312,0 8.05712,2.53389 13.83537,5.63083 16.3248,8.74957 41.28752,16.97469 69.40946,22.87014 26.7126,5.60003 42.62406,11.63109 57.17937,21.67323 4.6942,3.23866 16.65517,9.02437 26.57995,12.85715 9.92477,3.83277 20.04428,9.17 22.48782,11.86051 4.05315,4.46286 3.78612,5.67231 -3.04502,13.79066 -4.11832,4.89431 -7.48783,11.49054 -7.48783,14.65825 0,5.30089 -1.30823,5.62623 -16.42857,4.08572 -9.03572,-0.9206 -19.37992,-1.8148 -22.98712,-1.98714 -4.61588,-0.22058 -14.49226,7.36177 -33.34306,25.59817 -28.35905,27.43483 -42.18885,37.50577 -51.52822,37.52323 -7.45803,0.0143 -26.31138,-18.14963 -37.1416,-35.78269 C 518,534.0362 512.07614,524.44538 509.55017,520.39872 c -2.52597,-4.04663 -5.52814,-14.84494 -6.67154,-23.99623 L 500.79977,479.7638 477.47131,468.90112 C 464.64066,462.92663 448.67857,456.4292 442,454.46235 c -6.67857,-1.96683 -12.14286,-4.65829 -12.14286,-5.98097 0,-1.32269 -1.69197,-2.40489 -3.75997,-2.40489 -2.06797,0 -6.74863,-7.39286 -10.40148,-16.42857 -3.65286,-9.03572 -11.4512,-27.35714 -17.32969,-40.71429 -5.87849,-13.35714 -12.9664,-29.7542 -15.75091,-36.43791 -6.55926,-15.74414 -26.75003,-37.12117 -35.78585,-37.88837 -13.75576,-1.16792 -12.66413,-2.70789 -22.17498,31.28274 -1.13149,4.0438 -7.18816,10.0252 -14.46546,14.28571 C 294.00765,369.64909 287,382.75446 287,403.54243 c 0,17.23417 0.61355,17.89995 22.05999,23.93729 3.49014,0.98251 14.74691,10.39014 25.01504,20.90586 14.65657,15.00997 20.31151,23.41825 26.3096,39.11948 4.20214,11 10.94537,23.4064 14.98497,27.56974 11.07374,11.41309 19.14814,34.95529 22.74969,66.33035 1.77948,15.50217 3.93862,29.3236 4.79811,30.71428 0.85949,1.39066 6.45629,2.52849 12.43734,2.52849 12.49669,0 25.93097,8.953 25.93097,17.28117 0,2.99083 2.56663,9.64751 5.7036,14.79263 8.0466,13.1976 7.36306,34.04923 -2.66422,81.27363 -7.65449,36.04948 -26.5916,93.72357 -40.17883,122.36685 -13.56786,28.60249 -22.86055,51.01458 -22.86055,55.13509 0,12.04654 -39.26435,75.73749 -52.33457,84.8922 -7.28866,5.1052 -18.79592,5.43314 -33.72235,0.96106 -18.40764,-5.51506 -20.19674,-11.03343 -19.14617,-59.05492 0.53592,-24.49711 -0.42855,-47.87357 -2.31952,-56.21914 -4.49337,-19.83103 -2.70203,-193.71094 2.12232,-206.00726 1.91283,-4.8754 2.69294,-10.90985 1.73359,-13.40991 -1.06017,-2.76274 -13.54848,-8.25083 -31.84095,-13.99274 -16.55317,-5.19598 -30.12141,-10.27749 -30.15165,-11.29223 -0.0302,-1.01477 6.68318,-6.15763 14.91871,-11.42857 23.51479,-15.05012 33.59774,-24.99449 33.59774,-33.136 0,-15.80043 -23.17123,-20.29203 -40.1314,-7.7792 -13.46846,9.93671 -19.68418,29.5868 -19.78815,62.55734 -0.0729,23.1148 -2.11204,34.92714 -8.91307,51.63143 -7.45367,18.30731 -8.18964,32.64248 -6.4038,124.73345 1.42642,73.55649 1.03223,98.17198 -1.67683,104.7122 -4.05273,9.78418 -54.19514,57.28706 -68.01251,64.43229 -5.06125,2.61729 -13.91717,7.95831 -19.679817,11.86894 -11.716594,7.95107 -18.251569,9.07937 -18.251569,3.15117 z M 266.44268,193.27357 c 8.16367,-8.61303 14.74153,-17.93446 14.61747,-20.71429 -0.16446,-3.68522 -0.6573,-3.96266 -1.81951,-1.02426 -0.87667,2.21647 -8.50111,11.04836 -16.9432,19.62641 l -15.34925,15.59647 -45.50936,-1.15819 -45.50935,-1.15819 -8.99586,-9.4133 c -4.94772,-5.17732 -9.63871,-8.77045 -10.42443,-7.98473 -3.04596,3.04596 15.35981,18.59457 23.41635,19.78138 4.67667,0.68892 27.21652,1.44522 50.08857,1.68067 l 41.58553,0.42809 14.84304,-15.66006 z"
       id="path4230"
       inkscape:connector-curvature="0" />
  </g>
</svg>
