<?xml version="1.0" encoding="UTF-8" standalone="no"?>
<!-- Created with Inkscape (http://www.inkscape.org/) -->

<svg
   xmlns:dc="http://purl.org/dc/elements/1.1/"
   xmlns:cc="http://creativecommons.org/ns#"
   xmlns:rdf="http://www.w3.org/1999/02/22-rdf-syntax-ns#"
   xmlns:svg="http://www.w3.org/2000/svg"
   xmlns="http://www.w3.org/2000/svg"
   xmlns:xlink="http://www.w3.org/1999/xlink"
   xmlns:sodipodi="http://sodipodi.sourceforge.net/DTD/sodipodi-0.dtd"
   xmlns:inkscape="http://www.inkscape.org/namespaces/inkscape"
   width="210mm"
   height="297mm"
   viewBox="0 0 744.09448819 1052.3622047"
   id="svg2"
   version="1.1"
   inkscape:version="0.91 r13725"
   sodipodi:docname="YXH.svg">
  <defs
     id="defs4">
    <linearGradient
       inkscape:collect="always"
       id="linearGradient4202">
      <stop
         style="stop-color:#00e2bc;stop-opacity:1;"
         offset="0"
         id="stop4204" />
      <stop
         style="stop-color:#00e2bc;stop-opacity:0;"
         offset="1"
         id="stop4206" />
    </linearGradient>
    <radialGradient
       inkscape:collect="always"
       xlink:href="#linearGradient4202"
       id="radialGradient4208"
       cx="182.86786"
       cy="752.02033"
       fx="182.86786"
       fy="752.02033"
       r="43.221417"
       gradientTransform="matrix(1,0,0,0.74324261,0,193.08678)"
       gradientUnits="userSpaceOnUse" />
  </defs>
  <sodipodi:namedview
     id="base"
     pagecolor="#ffffff"
     bordercolor="#666666"
     borderopacity="1.0"
     inkscape:pageopacity="0.0"
     inkscape:pageshadow="2"
     inkscape:zoom="0.35"
     inkscape:cx="-46.428571"
     inkscape:cy="520"
     inkscape:document-units="px"
     inkscape:current-layer="layer1"
     showgrid="false"
     inkscape:window-width="1366"
     inkscape:window-height="705"
     inkscape:window-x="-8"
     inkscape:window-y="-8"
     inkscape:window-maximized="1" />
  <metadata
     id="metadata7">
    <rdf:RDF>
      <cc:Work
         rdf:about="">
        <dc:format>image/svg+xml</dc:format>
        <dc:type
           rdf:resource="http://purl.org/dc/dcmitype/StillImage" />
        <dc:title></dc:title>
      </cc:Work>
    </rdf:RDF>
  </metadata>
  <g
     inkscape:label="Layer 1"
     inkscape:groupmode="layer"
     id="layer1">
    <text
       xml:space="preserve"
       style="font-style:normal;font-weight:normal;font-size:40px;line-height:125%;font-family:sans-serif;letter-spacing:0px;word-spacing:0px;fill:#0000ff;fill-opacity:1;stroke:none;stroke-width:1px;stroke-linecap:butt;stroke-linejoin:miter;stroke-opacity:1;"
       x="111.42857"
       y="303.79077"
       id="text3336"
       sodipodi:linespacing="125%"><tspan
         sodipodi:role="line"
         id="tspan3338"
         x="111.42857"
         y="303.79077">岳</tspan></text>
    <path
       style="fill:#a2d4ff;fill-opacity:1"
       id="path3352"
       d="m 230.31378,267.9892 c -0.63419,9.51034 0.63825,18.97709 1.38592,28.44127 0.8328,11.98283 0.97269,24.00175 1.10561,36.00881 0.0204,10.41056 0.19333,20.82042 0.20957,31.23087 -0.11547,2.51311 0.16588,4.5886 0.90397,6.94377 0,0 -39.93735,15.333 -39.93735,15.333 l 0,0 c 3.17183,4.11866 0.79988,-0.91233 1.60575,-3.20979 0.0311,-10.44774 0.22255,-20.89511 0.10308,-31.34324 -0.09,-11.9012 -0.21038,-23.81189 -1.09084,-35.68656 -0.76365,-9.48862 -2.07625,-18.93996 -2.05612,-28.47315 0,0 37.77041,-19.24498 37.77041,-19.24498 z"
       inkscape:connector-curvature="0" />
    <path
       style="fill:#dec5ff;fill-opacity:1"
       id="path3354"
       d="m 265.42715,254.77729 c 13.95263,2.26803 27.65472,5.95794 41.4572,9.02286 13.54357,3.93008 30.32729,3.19716 43.072,9.65147 1.53975,0.77978 2.85765,1.93636 4.28647,2.90453 0.95246,1.41914 2.26606,2.65383 2.85738,4.25741 2.90108,7.86737 -0.55758,17.94542 -2.51611,25.47537 -1.99578,7.67312 -4.27797,15.26902 -6.36423,22.91804 -4.42312,17.3266 -7.99433,34.86124 -12.5709,52.14801 -2.66208,7.1356 -4.494,14.77003 -8.32878,21.40721 -12.64008,7.32349 -25.28016,14.64699 -37.92023,21.97048 0,0 33.45787,-26.23558 33.45787,-26.23558 l 0,0 c -11.55582,6.907 -23.11165,13.814 -34.66747,20.721 6.19197,-4.23978 6.20084,-13.9375 9.89233,-19.99545 5.12088,-17.36989 9.15914,-35.03015 13.59764,-52.58069 2.83071,-10.88583 6.35184,-21.68625 8.40663,-32.75718 0.3923,-2.11364 1.61651,-8.91474 0.75983,-11.82147 -0.32399,-1.09932 -1.26881,-1.90894 -1.90321,-2.8634 -13.46449,-8.444 -30.53503,-7.97327 -45.51616,-11.95146 -14.14672,-2.90367 -28.27317,-6.27908 -42.6413,-7.84636 0,0 34.64104,-24.42479 34.64104,-24.42479 z"
       inkscape:connector-curvature="0" />
    <path
       style="fill:#f40047;fill-opacity:1"
       id="path3356"
       d="m 288.33653,313.16054 c 6.80067,3.8704 14.20643,6.17383 21.49169,8.87096 0,0 -34.92519,23.55727 -34.92519,23.55727 l 0,0 c -7.49192,-2.67914 -14.78949,-5.7388 -21.99554,-9.11718 0,0 35.42904,-23.31105 35.42904,-23.31105 z"
       inkscape:connector-curvature="0" />
    <path
       style="fill:#00eabf;fill-opacity:1"
       id="path3358"
       d="m 251.30065,375.36037 c 8.84409,3.44638 18.17617,5.33259 27.36533,7.6061 8.24318,1.77747 16.42641,3.8158 24.59116,5.92761 7.15264,1.83176 14.54677,2.20341 21.89165,2.4426 1.06853,-0.15557 2.13707,-0.31113 3.2056,-0.4667 0,0 -33.96562,25.05909 -33.96562,25.05909 l 0,0 c -1.14097,0.006 -2.28194,0.0127 -3.4229,0.019 -7.54285,-0.40252 -15.09708,-1.08693 -22.38808,-3.19107 -8.11263,-2.15267 -16.29582,-4.03685 -24.46044,-5.97912 -9.28206,-2.41819 -18.61292,-4.62134 -27.77617,-7.47537 0,0 34.95947,-23.94215 34.95947,-23.94215 z"
       inkscape:connector-curvature="0" />
    <path
       style="fill:#f699ff;fill-opacity:1"
       id="path3360"
       d="m 400.00622,251.90886 c 19.00594,2.1036 38.17354,2.27901 57.27443,2.60324 21.28997,0.72279 42.55106,0.34221 63.51332,-3.64944 7.83136,-2.48023 15.86819,-4.45176 23.56592,-7.32577 0,0 -33.25994,25.86638 -33.25994,25.86638 l 0,0 c -7.72583,2.3581 -15.46968,4.73932 -23.3909,6.35455 -20.89908,3.0891 -41.97075,2.9341 -63.05246,2.38302 -19.7357,-0.25224 -39.50392,-0.28416 -59.1946,-1.78462 0,0 34.54423,-24.44736 34.54423,-24.44736 z"
       inkscape:connector-curvature="0" />
    <path
       style="fill:#9edeff;fill-opacity:1"
       id="path3362"
       d="m 464.56981,174.06037 c -0.48045,15.32499 -0.69716,30.66622 -0.31188,45.99434 0.80989,28.42232 7.08229,56.17396 13.52753,83.73288 4.54286,18.31455 9.68488,36.54696 16.4583,54.17218 3.32812,8.62982 6.88661,10.63931 15.24198,13.18409 9.44891,2.07386 19.23343,3.34452 28.9042,2.61862 1.44073,-0.30138 2.90445,-0.50847 4.32219,-0.90415 2.82641,-0.78883 5.39365,-1.92189 7.951,-3.34739 1.23074,-0.68602 4.8148,-2.92716 3.58423,-2.24085 -32.83531,18.31278 -41.67,26.67174 -29.34282,15.56424 3.75492,-3.66565 5.32942,-8.27705 6.59538,-13.21243 0,0 37.87455,-18.31427 37.87455,-18.31427 l 0,0 c -0.93792,5.48376 -2.14093,10.89856 -5.65405,15.39182 -12.78067,14.7978 -2.31732,3.37466 -42.17978,26.96509 -5.16026,3.05382 -11.10101,4.47486 -17.02858,4.88365 -10.02731,-0.0717 -20.10383,-1.14875 -29.79774,-3.78948 -8.80902,-3.08263 -13.95499,-7.45214 -17.0788,-16.54022 -5.98717,-18.20442 -10.39573,-36.89763 -15.03224,-55.47947 -6.41004,-27.69149 -12.71645,-55.55326 -14.74911,-83.97688 -0.66643,-15.15707 -0.44684,-30.3259 -0.99541,-45.48703 0,0 37.71105,-19.21474 37.71105,-19.21474 z"
       inkscape:connector-curvature="0" />
    <path
       style="fill:#79af95;fill-opacity:0.52976191"
       id="path3364"
       d="m 512.24952,325.97069 c -19.03752,5.00483 -37.69149,11.33975 -56.4248,17.37252 -4.59697,1.61417 -9.19394,3.22835 -13.79091,4.84253 0,0 31.55885,-24.58534 31.55885,-24.58534 l 0,0 c 4.61344,-1.59272 9.22689,-3.18544 13.84033,-4.77816 19.41338,-6.38917 38.78172,-12.92882 58.38994,-18.70146 0,0 -33.57341,25.84991 -33.57341,25.84991 z"
       inkscape:connector-curvature="0" />
    <path
       style="fill:#9bdeff;fill-opacity:1"
       id="path3366"
       d="m 376.99742,422.78061 c 23.61143,1.86675 47.22013,3.67922 70.89849,4.79532 41.99027,1.78606 84.03086,1.87767 126.05092,1.58696 3.70513,-0.19446 7.41027,-0.38892 11.1154,-0.58337 0,0 -32.89896,24.03827 -32.89896,24.03827 l 0,0 c -3.51355,1.9e-4 -7.02711,3.9e-4 -10.54066,5.8e-4 -41.82347,-0.80725 -83.65001,-1.43693 -125.47476,-2.17254 -24.46604,-0.83843 -48.92026,-2.59376 -73.39134,-2.78774 0,0 34.24091,-24.87748 34.24091,-24.87748 z"
       inkscape:connector-curvature="0" />
    <path
       style="fill:#d1e2a7;fill-opacity:1"
       id="path3368"
       d="m 458.29446,442.81478 c -10.41663,17.66972 -21.39343,34.97995 -31.56907,52.79266 -14.69305,26.47552 -27.36534,53.97333 -39.46472,81.70671 -5.36047,11.77578 -9.52836,24.0102 -13.41478,36.33075 0,0 -37.62838,17.61529 -37.62838,17.61529 l 0,0 c 4.69784,-12.43893 8.78484,-25.11921 14.45331,-37.17689 12.36889,-27.79896 25.22691,-55.40246 39.64464,-82.20899 9.52888,-17.3448 19.76568,-34.27957 29.3395,-51.5778 0,0 38.6395,-17.48173 38.6395,-17.48173 z"
       inkscape:connector-curvature="0" />
    <path
       style="fill:#00e2bc;fill-opacity:0.8035714"
       id="path3370"
       d="m 504.16798,471.37958 c -6.51188,18.75435 -8.12668,38.72774 -9.79713,58.37544 -1.88173,19.04148 -0.57082,38.05209 2.49937,56.87052 3.11844,12.78803 6.85873,26.08697 15.89907,36.15029 5.31718,5.91887 8.92328,7.31668 15.66994,11.25241 13.51255,5.71101 28.46567,9.64743 43.27131,7.78401 3.05286,-0.38423 6.02959,-1.23063 9.04438,-1.84595 13.9775,-3.18939 26.89094,-9.55455 39.7164,-15.76491 3.1407,-1.52079 12.34936,-6.49005 9.35547,-4.69746 -8.97863,5.37595 -18.21743,10.30493 -27.32615,15.4574 9.68549,-5.84297 18.23536,-11.14712 22.6379,-21.88881 2.56115,-9.55311 2.26483,-19.57386 2.1696,-29.38371 -0.0598,-3.88584 -0.14683,-7.77118 -0.22692,-11.65663 0,0 37.53969,-19.18935 37.53969,-19.18935 l 0,0 c 0.0221,3.92867 0.0466,7.85734 0.0531,11.78608 -0.007,10.20774 0.23639,20.5248 -1.51332,30.61522 -3.73843,13.31722 -10.88497,17.79481 -22.32984,24.92471 -29.54994,17.0998 -59.08924,36.60784 -92.83142,44.48175 -3.18814,0.48 -6.35025,1.18756 -9.56442,1.44002 -15.35546,1.20611 -30.62334,-3.4341 -44.34809,-9.86426 -7.25038,-4.57861 -10.82671,-6.10369 -16.56752,-12.70905 -9.24272,-10.63467 -13.3568,-24.36543 -16.86835,-37.66887 -3.33792,-19.20331 -4.86537,-38.53715 -2.55583,-57.99735 1.66998,-19.50096 3.17852,-39.23533 7.7983,-58.29299 0,0 38.27444,-18.17851 38.27444,-18.17851 z"
       inkscape:connector-curvature="0" />
    <path
       style="fill:none;fill-rule:evenodd;stroke:#000000;stroke-width:1px;stroke-linecap:butt;stroke-linejoin:miter;stroke-opacity:1"
       d="m 74.285714,686.64792 c 24.060761,-0.8461 2.373113,12.1311 5.714286,17.14286 1.494218,2.24132 4.098042,3.55929 5.714286,5.71428 1.277753,1.70367 1.579389,4.01062 2.857143,5.71429 1.616244,2.15499 4.286606,3.43 5.714285,5.71428 5.653704,9.04593 8.811346,19.44749 14.285716,28.57143 1.7667,2.94451 3.65397,5.82434 5.71428,8.57143 3.26739,4.35652 3.98711,1.6627 5.71429,8.57143 0,13.00653 -1.34687,0.1634 2.85714,8.57143 0.42592,0.85183 -0.42591,2.00531 0,2.85714 0.60234,1.20468 1.65247,2.2548 2.85715,2.85714 0.85183,0.42592 2.43122,-0.85183 2.85714,0 0.85183,1.70367 -0.60234,3.90727 0,5.71429 0.42592,1.27775 2.2548,1.65246 2.85714,2.85714 1.90476,3.80953 -2.85714,2.85714 2.85714,2.85714 1.90476,-7.61905 3.45759,-15.33482 5.71429,-22.85714 1.22387,-4.07955 4.68128,-7.29656 5.71429,-11.42857 0.46197,-1.84789 0,-3.80952 0,-5.71429 0.95238,-1.90476 2.1837,-3.69398 2.85714,-5.71428 0.30117,-0.90351 -0.42592,-2.00531 0,-2.85714 0.60234,-1.20468 2.43122,-1.57939 2.85714,-2.85715 0.78878,-2.36634 -0.90849,-12.46873 0,-14.28571 0.60234,-1.20468 2.43123,-1.57939 2.85714,-2.85714 0.60234,-1.80702 0,-3.80953 0,-5.71429 0,-0.95238 -0.42591,-2.00531 0,-2.85714 0.60234,-1.20468 2.25481,-1.65247 2.85715,-2.85715 0.42591,-0.85183 -0.42592,-2.0053 0,-2.85714 0.60234,-1.20468 2.2548,-1.65246 2.85714,-2.85714 0.42592,-0.85184 -0.67344,-2.18371 0,-2.85714 0.67344,-0.67344 2.18371,0.67343 2.85714,0 0.67344,-0.67344 -0.67343,-2.18371 0,-2.85715 0.67344,-0.67343 2.00531,0.42592 2.85715,0 1.20467,-0.60234 1.90476,-1.90476 2.85714,-2.85714"
       id="path3380"
       inkscape:connector-curvature="0" />
    <path
       style="fill:url(#radialGradient4208);fill-rule:evenodd;stroke:#c2ea00;stroke-width:1px;stroke-linecap:butt;stroke-linejoin:miter;stroke-opacity:1;fill-opacity:1"
       d="m 225.71429,720.93363 c -4.50774,5.11102 -12.03185,-2.5555 -17.14286,0 -0.85184,0.42592 0.42592,2.00531 0,2.85715 -0.60234,1.20467 -1.65247,2.2548 -2.85714,2.85714 -0.85184,0.42592 -2.00531,-0.42592 -2.85715,0 -1.20467,0.60234 -1.65246,2.2548 -2.85714,2.85714 -0.85184,0.42592 -2.00531,-0.42592 -2.85714,0 -1.20468,0.60234 -1.90476,1.90476 -2.85715,2.85714 -1.68041,1.68042 -10.10549,10.76704 -11.42857,11.42858 -0.85183,0.42591 -2.0053,-0.42592 -2.85714,0 -2.53239,1.26619 -5.97053,6.83749 -8.57143,8.57142 -1.77192,1.18129 -4.20844,1.3513 -5.71428,2.85715 -0.67344,0.67343 0.67343,2.18371 0,2.85714 -0.67344,0.67344 -2.18371,-0.67343 -2.85715,0 -0.67343,0.67344 0.67344,2.18371 0,2.85714 -0.67343,0.67344 -2.0053,-0.42591 -2.85714,0 -11.89074,5.94538 3.05439,-0.19724 -2.85714,5.71429 -0.67344,0.67343 -2.18371,-0.67344 -2.85715,0 0,7.61905 0.95239,-0.95238 -2.85714,2.85714 -0.67343,0.67344 0.67344,2.18371 0,2.85714 -5.91153,5.91153 0.23109,-9.0336 -5.71428,2.85715 0,7.61905 0.95238,-0.95238 -2.85715,2.85714 -0.67343,0.67344 0.42592,2.00531 0,2.85714 -0.60234,1.20468 -1.90476,1.90477 -2.85714,2.85715"
       id="path3382"
       inkscape:connector-curvature="0" />
    <path
       style="fill:none;fill-rule:evenodd;stroke:#000000;stroke-width:1px;stroke-linecap:butt;stroke-linejoin:miter;stroke-opacity:1"
       d="m 54.285714,818.07649 c 45.714286,0 91.428576,0 137.142856,0"
       id="path3384"
       inkscape:connector-curvature="0" />
    <path
       style="fill:none;fill-rule:evenodd;stroke:#000000;stroke-width:1px;stroke-linecap:butt;stroke-linejoin:miter;stroke-opacity:1"
       d="m 111.42857,826.64792 c -0.95238,4.7619 -2.2548,9.467 -2.85714,14.28571 -0.35439,2.83508 0,5.71429 0,8.57143 0,7.61905 0,15.2381 0,22.85714 0,2.85715 0.40406,5.74301 0,8.57143 -0.55533,3.8873 -2.30182,7.54127 -2.85714,11.42857 -0.40407,2.82843 0.46971,5.75316 0,8.57143 -0.99024,5.94143 -4.40763,11.26291 -5.71429,17.14286 -1.256701,5.65516 -2.138596,11.39449 -2.857143,17.14286 -0.472513,3.7801 0.923945,7.73279 0,11.42857 -0.516501,2.066 -2.439496,3.62605 -2.857143,5.71428 -0.560332,2.80166 0.692959,5.7996 0,8.57143 -0.326664,1.30666 -2.254804,1.65247 -2.857143,2.85715 -0.425917,0.85183 0,1.90476 0,2.85714 0,1.90476 0,3.80952 0,5.71428 0,4.76191 0,9.52381 0,14.28572"
       id="path3386"
       inkscape:connector-curvature="0" />
    <path
       style="fill:none;fill-rule:evenodd;stroke:#000000;stroke-width:1px;stroke-linecap:butt;stroke-linejoin:miter;stroke-opacity:1"
       d="m 151.42857,846.64792 c 4.48266,7.17518 -1.49422,15.38605 0,22.85714 0.59064,2.95321 2.36203,5.60071 2.85714,8.57143 0.46972,2.81827 0,5.71429 0,8.57143 0,9.52381 0,19.04762 0,28.57143 0,2.85714 0,5.71428 0,8.57143 0,2.85714 -0.46971,5.75316 0,8.57142 0.57658,3.45946 5.13771,13.6834 5.71429,17.14286 4.54054,27.24325 -4.54054,-10.10038 0,17.14286 0.49512,2.97071 1.90476,5.71428 2.85714,8.57143 1.90476,5.71428 4.2534,11.29931 5.71429,17.14285 1.1778,4.71122 1.52304,9.6164 2.85714,14.2857 0.58504,2.0477 2.06623,3.737 2.85714,5.7143 2.32319,5.808 2.36404,9.2603 5.71429,14.2857 0.74711,1.1207 2.2548,1.6525 2.85714,2.8572 0.42592,0.8518 -0.95238,2.8571 0,2.8571 1.34687,0 1.90476,-1.9048 2.85715,-2.8571 0.95238,-0.9524 2.2548,-1.6525 2.85714,-2.8572 0.42592,-0.8518 -0.30117,-1.9536 0,-2.8571 0.22774,-0.6833 5.67502,-11.1145 5.71428,-11.4286 0.70877,-5.6702 -0.63103,-11.4635 0,-17.14285 0.33259,-2.99328 2.02977,-5.67562 2.85715,-8.57143 1.07876,-3.77568 2.0053,-7.59531 2.85714,-11.42857 2.90521,-13.07343 4.55976,-23.28856 5.71429,-37.14286 0.31636,-3.79636 0,-7.61905 0,-11.42857 0,-9.52381 0,-19.04762 0,-28.57143 0,-3.80952 -0.53875,-7.65733 0,-11.42857 0.42591,-2.98142 2.2665,-5.61822 2.85714,-8.57143 0.74711,-3.73554 0,-7.61905 0,-11.42857"
       id="path3388"
       inkscape:connector-curvature="0" />
    <path
       style="fill:none;fill-rule:evenodd;stroke:#a9eb67;stroke-width:1px;stroke-linecap:butt;stroke-linejoin:miter;stroke-opacity:1"
       d="m 314.28571,672.3622 c -9.00862,45.04313 1.82908,-2.63007 -5.71428,20 -1.24175,3.72526 -0.83684,8.0614 -2.85714,11.42858 -1.09567,1.8261 -4.20844,1.35129 -5.71429,2.85714 -2.4281,2.4281 -3.65397,5.82434 -5.71429,8.57143 -0.80812,1.07749 -1.90476,1.90476 -2.85714,2.85714 -2.85714,2.85714 -5.71428,5.71429 -8.57143,8.57143 -1.90476,1.90476 -4.03152,3.61083 -5.71428,5.71428 -2.14512,2.6814 -3.56917,5.89004 -5.71429,8.57143 -14.32091,17.90114 5.16408,-12.03184 -14.28571,17.14286 -3.35026,5.02538 -3.39111,8.47776 -5.71429,14.28571 -0.79091,1.97728 -2.06623,3.73702 -2.85714,5.71429 -1.11852,2.79629 -1.90476,5.71429 -2.85714,8.57143 -0.95239,2.85714 -2.1267,5.64966 -2.85715,8.57143 -0.46197,1.84789 0,3.80952 0,5.71428 0,0.95238 -0.67343,2.18371 0,2.85715 0.67344,0.67343 1.90476,0 2.85715,0 10.91394,0 0.44778,0.60233 14.28571,-2.85715 8.51835,-2.12959 17.19593,-3.58469 25.71429,-5.71428 6.48516,-1.62129 17.61362,-6.60511 22.85714,-8.57143 2.81993,-1.05748 5.64966,-2.1267 8.57143,-2.85714 1.84789,-0.46198 3.90727,0.60233 5.71428,0 2.02031,-0.67344 3.69398,-2.18371 5.71429,-2.85715 0.90351,-0.30117 1.90476,0 2.85714,0 2.85714,0 5.71429,0 8.57143,0 9.52381,0 19.04762,0 28.57143,0 12.38095,0 24.7619,0 37.14286,0 3.80952,0 7.64846,-0.47251 11.42857,0 3.89644,0.48706 7.59531,2.00531 11.42857,2.85715 4.74057,1.05346 9.54514,1.80368 14.28571,2.85714 3.83326,0.85183 7.58897,2.03437 11.42857,2.85714 9.52381,1.90476 19.04762,3.80953 28.57143,5.71429 3.80953,0 7.65734,-0.53875 11.42857,0 3.54573,0.50653 22.61932,8.50348 22.85715,8.57143 1.83147,0.52327 3.80952,0 5.71428,0 0.95238,0 2.00531,-0.42592 2.85715,0 1.20467,0.60233 1.90476,1.90476 2.85714,2.85714 0.95238,0.95238 2.11003,1.73648 2.85714,2.85714 1.18128,1.77193 1.90476,3.80953 2.85714,5.71429 0.95239,1.90476 2.34065,3.64828 2.85715,5.71428 0.46197,1.84789 -0.46198,3.8664 0,5.71429 0.5165,2.066 2.34064,3.64828 2.85714,5.71428 0.46197,1.8479 0,3.80953 0,5.71429 0,4.76191 0,9.52381 0,14.28571 0,2.5535 0.45525,13.37522 0,14.28572 -0.60234,1.20468 -2.11003,1.73648 -2.85714,2.85714 -1.18129,1.77193 -1.90476,3.80953 -2.85715,5.71429 -0.95238,1.90476 -2.1837,3.69398 -2.85714,5.71428 -0.60234,1.80702 0.85184,4.01062 0,5.71429 -0.60234,1.20468 -2.2548,1.65246 -2.85714,2.85714 -0.42592,0.85184 0.67343,2.18371 0,2.85714 -0.67344,0.67344 -2.00531,-0.42591 -2.85714,0 -1.20468,0.60234 -1.65247,2.25481 -2.85715,2.85715 -0.85183,0.42592 -1.95363,-0.30117 -2.85714,0 -2.02031,0.67343 -3.80952,1.90476 -5.71429,2.85714"
       id="path3390"
       inkscape:connector-curvature="0" />
    <path
       style="fill:none;fill-rule:evenodd;stroke:#000000;stroke-width:1px;stroke-linecap:butt;stroke-linejoin:miter;stroke-opacity:1"
       d="m 300,858.07649 c 64.7619,0 129.52381,0 194.28571,0"
       id="path3392"
       inkscape:connector-curvature="0" />
    <path
       style="fill:none;fill-rule:evenodd;stroke:#000000;stroke-width:1px;stroke-linecap:butt;stroke-linejoin:miter;stroke-opacity:1"
       d="m 420,823.79078 c -5.41491,10.71098 -10.14499,21.63155 -17.14286,31.42857 -2.7678,3.87492 -5.93,7.46642 -8.57143,11.42857 -8.47503,12.71255 6.412,-1.40869 -11.42857,20 -1.36333,1.63599 -4.20844,1.3513 -5.71428,2.85714 -3.36718,3.36718 -5.59669,7.71015 -8.57143,11.42857 -3.36553,4.20692 -7.61905,7.61905 -11.42857,11.42857 -1.90476,1.90477 -3.80953,3.80953 -5.71429,5.71429 -0.95238,0.95238 -2.43122,1.57939 -2.85714,2.85714 -0.60234,1.80702 0.85183,4.01062 0,5.71429 -0.42592,0.85183 -2.18371,-0.67344 -2.85714,0 -1.50585,1.50585 -1.67586,3.94236 -2.85715,5.71428 -0.74711,1.12067 -2.2548,1.65247 -2.85714,2.85715 -0.42592,0.85183 0.42592,2.00531 0,2.85714 -0.60234,1.20468 -2.11003,1.73648 -2.85714,2.85714 -1.62094,2.43141 -5.94856,9.72899 0,11.42857 5.57021,1.59149 11.41384,1.9978 17.14285,2.85715 13.31969,1.99795 26.58194,4.54749 40,5.71428 8.53921,0.74254 17.14286,0 25.71429,0 13.33333,0 26.66667,0 40,0 15.2381,0 30.47619,0 45.71429,0 1.90476,0 3.80952,0 5.71428,0 0.95238,0 1.95364,0.30117 2.85714,0 2.02031,-0.67343 3.69398,-2.1837 5.71429,-2.85714 1.80702,-0.60234 4.01061,0.85184 5.71429,0 1.20467,-0.60234 1.90476,-3.80952 2.85714,-2.85714 0.95238,0.95238 -1.90476,1.90476 -2.85714,2.85714"
       id="path3394"
       inkscape:connector-curvature="0" />
    <path
       style="fill:none;fill-rule:evenodd;stroke:#000000;stroke-width:1px;stroke-linecap:butt;stroke-linejoin:miter;stroke-opacity:1"
       d="m 451.42857,909.50506 c 0,3.80953 0.62628,7.67088 0,11.42857 -0.3501,2.10062 -2.06623,3.73702 -2.85714,5.71429 -1.11852,2.79629 -2.36203,5.60071 -2.85714,8.57143 -0.46972,2.81827 0.40406,5.743 0,8.57143 -1.11066,7.7746 -3.94835,15.20472 -5.71429,22.85714 -1.97438,8.55566 -3.7399,17.15862 -5.71429,25.71428 -0.88297,3.82621 -2.1547,7.56515 -2.85714,11.4286 -0.95238,6.6666 -1.90476,13.3333 -2.85714,20 0,3.8095 0.47251,7.6484 0,11.4285 -0.97411,7.7929 -4.60363,15.0826 -5.71429,22.8572 -0.80812,5.6568 0.93943,11.5063 0,17.1428 -0.49512,2.9708 -2.36202,5.6008 -2.85714,8.5715 -0.78285,4.6971 0.93389,9.6163 0,14.2857 -0.59064,2.9532 -2.1267,5.6496 -2.85714,8.5714 -0.89358,3.5743 2.05168,8.9742 -2.85715,11.4286 -1.20467,0.6023 -2.43122,-1.5794 -2.85714,-2.8572 -2.61197,-7.8359 3.93997,-4.6314 -2.85714,-11.4285"
       id="path3396"
       inkscape:connector-curvature="0" />
    <path
       style="fill:none;fill-rule:evenodd;stroke:#000000;stroke-width:1px;stroke-linecap:butt;stroke-linejoin:miter;stroke-opacity:1"
       d="m 325.71429,1012.3622 c 80,0 160,0 240,0 12.38095,0 24.7619,0 37.14285,0 2.85715,0 5.71429,0 8.57143,0 0.95238,0 2.18371,0.6734 2.85714,0 0.67344,-0.6734 0,-1.9048 0,-2.8571"
       id="path3398"
       inkscape:connector-curvature="0" />
    <path
       sodipodi:type="spiral"
       style="fill:none;fill-rule:evenodd;stroke:#000000;stroke-width:1px;stroke-linecap:butt;stroke-linejoin:miter;stroke-opacity:1"
       id="path3400"
       sodipodi:cx="105.7613"
       sodipodi:cy="446.66895"
       sodipodi:expansion="1"
       sodipodi:revolution="3"
       sodipodi:radius="58.901508"
       sodipodi:argument="-17.677282"
       sodipodi:t0="0"
       d="m 105.7613,446.66895 c 1.14602,2.72179 -3.10352,2.88765 -4.52381,1.90476 -3.848884,-2.66357 -2.320908,-8.36096 0.71428,-10.95238 5.42925,-4.63545 13.59518,-2.11076 17.38096,3.33333 5.55578,7.98941 1.92425,18.91119 -5.95238,23.80952 -10.49831,6.52871 -24.257662,1.74962 -30.238095,-8.57142 -7.525765,-12.98798 -1.581494,-29.61899 11.190465,-36.66667 15.46855,-8.53568 34.98877,-1.4172 43.09524,13.80951 9.5532,17.94415 1.25532,40.36381 -16.42856,49.52382 -20.41673,10.57558 -45.742367,1.09505 -55.952381,-19.04761 -11.601268,-22.88736 -0.935909,-51.1234 21.666648,-62.38095 25.356653,-12.62928 56.506233,-0.77758 68.809533,24.28569 13.65899,27.82499 0.61986,61.89041 -26.90474,75.2381" />
  </g>
</svg>
